#!OML:ASF F:\VICON\USERDATA\INSTALL\rory3\rory3.ASF
:FULLY-SPECIFIED
:DEGREES
54
root 0.6496583443473336 17.67348692381404 19.302927470618293 -2.270666561438586 -3.569500275330705 -5.228105778810665
lfemur -25.513934927168872 -4.002382850925993 -15.017319683182034
ltibia 22.256371684214372
lfoot -2.853576931280368 -2.60178408883552
ltoes -3.8888755373247093
rfemur 11.167510728911344 4.450398577960421 30.210072077910475
rtibia 40.31055996860859
rfoot -2.9505752953240707 -0.5912470017889442
rtoes -3.724414167724717
lowerback 9.04747497282336 2.3137101978022065 4.6564928760330515
upperback 0.07010675686765772 3.673295944811843 1.2898784733864508
thorax -4.927745857439064 1.7096176929976328 -1.9060711213131096
lowerneck -16.6893291288936 -3.583850649583118 -1.4398660009545758
upperneck 20.153907359573886 -4.828891033740417 0.9858376434919593
head 9.144482147096905 -2.2628440038655873 -0.032919551565886995
lclavicle -1.5048320598064266e-15 -1.2311664144165452e-15
lhumerus -39.32441275946944 11.18024665165362 78.86245591519562
lradius 15.159826450365863
lwrist -0.5738107104529284
lhand -27.859392646566892 21.722264630576
lfingers 7.125020000000055
lthumb -1.249732290549292 51.689935598044514
rclavicle -1.5048320598064266e-15 -1.2311664144165452e-15
rhumerus -22.008341844272177 -14.748259305404009 -80.87884677320694
rradius 30.234133922305066
rwrist -0.9790191451998354
rhand -17.850905231301876 30.293665455657788
rfingers 7.125020000000055
rthumb 8.414478286293036 -6.372429756323022
55
root 0.6757311180732279 17.734862527613124 19.962215632744485 -3.1590621255218814 -3.516884668881737 -3.8292987862688257
lfemur -23.614061144702216 -3.485894016132904 -17.681635974505834
ltibia 26.173321086887896
lfoot -3.6204909190127967 -3.927148230393515
ltoes -2.4264831074760913
rfemur 7.010922157865769 3.0969144006515683 27.54103327329302
rtibia 52.045995266674986
rfoot 8.252697901987375 0.19033955853939055
rtoes 3.584152280354847
lowerback 9.209816610342617 2.2880608733241163 3.4481787354181996
upperback 0.055927696482747535 3.4992340747946664 0.9314124413194994
thorax -5.118038331264605 1.646332036117578 -1.5840079551463853
lowerneck -16.5315468673475 -3.562864549962995 -1.4892330581419837
upperneck 20.40753558495363 -4.8184313231146785 1.0462793475244936
head 9.204679968617294 -2.2503224712542096 -0.0008644022954186759
lclavicle -1.6674202706656784e-15 -1.3570589237266878e-15
lhumerus -39.531829621316234 11.487697630135301 78.44561917586444
lradius 14.375909097160722
lwrist -0.3272096298429794
lhand -27.533688003730862 22.440558844538188
lfingers 7.125020000000055
lthumb -0.935173662878442 52.40245566080897
rclavicle -1.6674202706656784e-15 -1.3570589237266878e-15
rhumerus -23.934643169228192 -16.965747074776388 -80.33307326917992
rradius 28.584473768337148
rwrist 0.23089289382786848
rhand -17.730296968212492 30.12318904552474
rfingers 7.125020000000055
rthumb 8.530890534496988 -6.80643517641719
56
root 0.7022197075949629 17.80871082738734 20.77077422058229 -3.854644191326819 -3.6304850358470944 -2.366973822212877
lfemur -20.577534574301914 -3.2901056572395824 -20.05663965077372
ltibia 28.47143888191637
lfoot -5.304034651277347 -3.595805900869548
ltoes -0.8877459444687927
rfemur 1.3905813876289326 1.8021401793462517 25.059281651383092
rtibia 64.86296628088341
rfoot 16.31230540842598 -0.8924346293806318
rtoes 11.22983189394811
lowerback 9.570587414686111 2.2304477249590464 2.1971356243376707
upperback 0.09818338753105121 3.2793937873911836 0.640770331521223
thorax -5.306505983167167 1.5624270720248075 -1.1039401857216622
lowerneck -16.473112388260706 -3.4009836370374447 -1.5151295371116638
upperneck 20.57336539391706 -4.592942479289341 1.060566298162905
head 9.248048805469333 -2.1440953398838007 0.03277379517767892
lclavicle -1.4951624976457947e-15 -1.2236791960120462e-15
lhumerus -39.10017435671521 11.165188847173637 78.59689160425025
lradius 15.06041541978395
lwrist 0.9622598248707881
lhand -27.77337827854748 22.660690187599194
lfingers 7.125020000000055
lthumb -1.1666403768584157 52.61865200646163
rclavicle -1.4951624976457947e-15 -1.2236791960120462e-15
rhumerus -25.443744020110252 -18.686466009200284 -79.68729170016118
rradius 27.42938727247826
rwrist 2.0319006266349753
rhand -17.580471896606355 30.024731125415016
rfingers 7.125020000000055
rthumb 8.675521299257806 -7.124462122880202
57
root 0.718333206426324 17.870853911903335 21.344997022356537 -4.380144361639195 -3.784984076070315 -1.1190708988644198
lfemur -17.232553305959783 -3.351919907916952 -22.01563691768894
ltibia 29.079641662829324
lfoot -7.525152127373422 -2.4416737559326758
ltoes 0.11195195254746526
rfemur -5.064810244760242 0.5105390344896632 23.086863892892183
rtibia 76.08857507394697
rfoot 18.129569409034413 -3.3910567548181842
rtoes 16.11044973164875
lowerback 9.984917674621656 2.0524458132302956 1.018355067929833
upperback 0.19327644241096276 2.9088414696880402 0.4667580936732958
thorax -5.461278843860082 1.4059115061454508 -0.538552180111456
lowerneck -16.453884657861696 -3.1506693459207553 -1.541283476246238
upperneck 20.597622833030417 -4.222797396295405 0.9831122775286075
head 9.243753332542344 -1.9791601977521251 0.05186749867430879
lclavicle -1.397589550441219e-15 -1.148128137839464e-15
lhumerus -38.143102361793495 10.230367600966263 79.02761621799593
lradius 15.952068643519759
lwrist 2.341055090162783
lhand -28.53010037496862 21.908399453586597
lfingers 7.125020000000056
lthumb -1.8974292906825492 51.8652972884873
rclavicle -1.397589550441219e-15 -1.148128137839464e-15
rhumerus -26.552144946691513 -20.217450761727164 -79.15025613254052
rradius 26.117888447849225
rwrist 4.013735939911489
rhand -17.453972324614817 30.026648604028917
rfingers 7.125020000000056
rthumb 8.797642567875812 -7.392212960124654
58
root 0.7355399103217869 17.917416927244847 22.162919815812465 -4.730898906669736 -3.674390158818475 -0.1544583976547813
lfemur -13.739824461120904 -3.4902640168189354 -23.442832681591906
ltibia 29.242340368462862
lfoot -9.682566975213735 -1.12452639648909
ltoes 0.5612969491585922
rfemur -11.3514809002709 -0.7621194906068243 21.878532498548566
rtibia 84.45450249165413
rfoot 14.216248214834094 -5.85620940120459
rtoes 17.2894965309292
lowerback 10.389163984074578 1.7358702301408888 0.11029671638305949
upperback 0.32614557665039695 2.3827318217707933 0.438578408153514
thorax -5.527622860829709 1.1700636113056047 0.08262681016877027
lowerneck -16.346575184877 -2.8680871325647423 -1.5858820640673157
upperneck 20.638057592448497 -3.787080426055242 0.8722852767006646
head 9.226388774174175 -1.7930114185750692 0.06941787930061022
lclavicle -1.1102623270884702e-15 -9.256497937239047e-16
lhumerus -36.52881978016703 8.9984419183999 79.59961644750507
lradius 17.192040974954715
lwrist 3.397929874369865
lhand -29.2457906238314 21.044799584922643
lfingers 7.125020000000056
lthumb -2.5886093255556037 51.00320970302867
rclavicle -1.1102623270884702e-15 -9.256497937239047e-16
rhumerus -27.239546734752178 -21.46880740470447 -78.5350399784985
rradius 25.273697602877
rwrist 5.8592935724265525
rhand -17.306803310406224 30.207061536919756
rfingers 7.125020000000056
rthumb 8.939656269969891 -7.457354200133037
59
root 0.7405677823785318 17.940275234841337 22.831705542356293 -4.969737163181868 -3.2926451415719082 0.4671433739764135
lfemur -10.765869652674347 -3.657353003728331 -24.569639246300547
ltibia 29.20638002045473
lfoot -11.888254777720073 -0.06790527753907227
ltoes 0.5831291646576764
rfemur -17.39104864286833 -2.0107469734710457 21.282411181912856
rtibia 88.42146110007022
rfoot 7.202793252689483 -7.307383575349611
rtoes 15.536412030837463
lowerback 10.687773624425928 1.289211117484493 -0.5913591493804862
upperback 0.44290402622701047 1.7045408850956947 0.4975905139740706
thorax -5.569498322212866 0.8571357376150814 0.6518764079185806
lowerneck -16.18509683570292 -2.64374164650863 -1.6843260273357927
upperneck 20.641248204223405 -3.427121368640436 0.7634861594532116
head 9.188453886159559 -1.643387998724168 0.09011595448758847
lclavicle -1.0929384383687321e-15 -9.122358240346874e-16
lhumerus -34.7817541242261 7.286551010699844 80.0740542697916
lradius 18.043149006234295
lwrist 3.779265638722306
lhand -29.642385025917815 20.467609986023003
lfingers 7.125020000000056
lthumb -2.9716394297779685 50.42889837876975
rclavicle -1.0929384383687321e-15 -9.122358240346874e-16
rhumerus -28.088139937232327 -22.53963894458031 -78.14869530162204
rradius 24.424431116166083
rwrist 6.705893373701243
rhand -17.184522461464226 30.213395597425986
rfingers 7.125020000000056
rthumb 9.057610599288584 -7.424623520998112
